<svg xmlns="http://www.w3.org/2000/svg" width="761" height="696" viewBox="0 0 761 696" version="1.1"><path d="M 345.293 97.428 C 306.388 104.807, 273.916 129.576, 257.378 164.489 C 247.486 185.371, 245.646 201.538, 246.166 263 L 246.500 302.500 233.500 303.045 C 222.100 303.523, 219.818 303.920, 214.963 306.267 C 204.206 311.467, 196.771 320.046, 193.588 330.932 C 192.284 335.391, 192 342.059, 192 368.182 C 192 385.682, 192.170 400, 192.379 400 C 192.587 400, 195.271 398.487, 198.342 396.637 C 201.414 394.788, 207.206 392.200, 211.213 390.887 L 218.500 388.500 367 388.500 L 515.500 388.500 522.500 390.708 C 526.350 391.923, 532.142 394.510, 535.371 396.458 C 538.600 398.406, 541.413 400, 541.621 400 C 541.830 400, 542 385.682, 542 368.182 C 542 333.154, 541.567 329.821, 535.841 320.803 C 531.869 314.546, 526.610 309.936, 519.421 306.411 C 514.061 303.782, 512.267 303.459, 500.500 303.004 L 487.500 302.500 487.829 263.500 C 488.216 217.534, 487.165 197.599, 483.626 183.794 C 473.077 142.648, 439.101 109.892, 395.500 98.833 C 385.053 96.183, 356.124 95.373, 345.293 97.428 M 355.763 148.965 C 330.645 153.556, 310.505 170.401, 302.252 193.722 L 299.500 201.500 299.500 252 L 299.500 302.500 367 302.500 L 434.500 302.500 434.500 252 L 434.500 201.500 431.687 193.500 C 424.505 173.076, 407.377 157.033, 386.183 150.880 C 378.578 148.672, 362.799 147.678, 355.763 148.965 M 216 392.547 C 212.425 393.311, 205.687 395.857, 201.027 398.207 C 176.018 410.814, 162.564 439.398, 168.485 467.343 C 172.207 484.914, 185.768 502.079, 202 509.769 C 217.160 516.950, 206.125 516.500, 367 516.500 C 527.875 516.500, 516.840 516.950, 532 509.769 C 543.286 504.422, 554.750 493.148, 560.234 482 C 570.984 460.150, 568.425 434.251, 553.597 414.831 C 545.759 404.565, 530.805 395.336, 517.412 392.499 C 507.376 390.373, 225.971 390.418, 216 392.547 M 218 400.086 C 215.525 400.564, 209.826 402.767, 205.336 404.983 C 182.663 416.172, 170.368 442.437, 176.522 466.540 C 181.332 485.381, 193.997 499.129, 212.609 505.710 L 220.500 508.500 362 508.801 C 459.451 509.008, 505.857 508.765, 511.070 508.022 C 524.477 506.111, 533.829 501.436, 543.118 492.003 C 564.395 470.395, 564.239 436.399, 542.765 414.925 C 536.045 408.205, 523.809 401.598, 515.114 399.994 C 508.374 398.750, 224.473 398.839, 218 400.086 M 229.577 414.757 C 229.260 415.074, 229 419.634, 229 424.890 L 229 434.446 222.004 427.504 L 215.007 420.561 209.499 426.001 L 203.991 431.441 210.495 437.995 C 214.073 441.601, 217 444.876, 217 445.275 C 217 445.674, 212.725 446, 207.500 446 L 198 446 198 454 L 198 462 207.723 462 L 217.446 462 210.492 469.008 L 203.538 476.016 209.261 481.739 L 214.984 487.462 221.992 480.508 L 229 473.554 229 483.277 L 229 493 237 493 L 245 493 245 482.775 L 245 472.550 252.279 479.780 L 259.558 487.011 264.998 481.502 L 270.439 475.993 263.720 469.221 C 260.024 465.497, 256.999 462.236, 256.998 461.975 C 256.997 461.714, 261.272 461.643, 266.498 461.819 L 276 462.137 276 454.069 L 276 446 266.277 446 L 256.554 446 263.437 439.064 L 270.319 432.128 266.973 428.314 C 265.133 426.216, 262.548 423.650, 261.229 422.611 L 258.831 420.722 251.915 427.584 L 245 434.446 245 424.449 L 245 414.451 237.577 414.315 C 233.494 414.241, 229.894 414.439, 229.577 414.757 M 316.541 414.792 C 316.244 415.090, 316 419.634, 316 424.890 L 316 434.446 309.004 427.504 L 302.007 420.561 296.498 426.002 L 290.989 431.442 298.220 438.721 L 305.450 446 295.225 446 L 285 446 285 453.964 L 285 461.928 294.693 462.214 L 304.386 462.500 297.587 469.162 L 290.788 475.824 296.406 481.624 L 302.023 487.423 309.012 480.488 C 312.914 476.616, 316.030 474.204, 316.068 475.027 C 316.106 475.837, 316.078 480.212, 316.006 484.750 L 315.876 493 323.938 493 L 332 493 332 482.775 L 332 472.550 339.279 479.780 L 346.558 487.011 351.998 481.502 L 357.439 475.993 350.534 469.035 L 343.630 462.077 353.526 461.788 L 363.421 461.500 363.461 453.752 L 363.500 446.003 353.527 446.002 L 343.554 446 350.444 439.057 L 357.334 432.113 353.599 427.556 C 347.286 419.852, 346.817 419.848, 339.161 427.436 L 332.500 434.038 332 424.263 L 331.500 414.488 324.291 414.369 C 320.327 414.304, 316.839 414.494, 316.541 414.792 M 403 424.218 C 403 429.598, 402.615 434, 402.145 434 C 401.675 434, 400.200 432.762, 398.868 431.250 C 397.536 429.738, 394.543 426.718, 392.216 424.541 L 387.987 420.581 382.488 426.012 L 376.989 431.442 384.220 438.721 L 391.450 446 381.183 446 L 370.916 446 371.208 453.750 L 371.500 461.500 381.435 461.788 L 391.370 462.077 384.466 469.035 L 377.561 475.993 383.002 481.502 L 388.442 487.011 395.721 479.780 L 403 472.550 403 482.775 L 403 493 410.500 493 L 418 493 418.111 485.750 C 418.172 481.762, 418.139 477.488, 418.039 476.250 C 417.939 475.012, 418.240 474, 418.707 474 C 419.175 474, 422.457 476.925, 426 480.500 L 432.442 487 438.101 481.400 L 443.759 475.801 436.849 469.150 L 429.938 462.500 439.719 462 L 449.500 461.500 449.792 453.750 L 450.084 446 439.817 446 L 429.550 446 436.780 438.721 L 444.011 431.442 438.502 426.002 L 432.993 420.561 426.221 427.280 C 422.497 430.976, 419.124 434, 418.725 434 C 418.326 434, 418 429.543, 418 424.095 L 418 414.190 410.500 414.313 L 403 414.436 403 424.218 M 459.215 486.185 C 457.600 487.800, 457.674 490.485, 459.372 491.894 C 460.343 492.699, 468.889 492.954, 488.622 492.766 L 516.500 492.500 516.500 489 L 516.500 485.500 488.465 485.235 C 467.498 485.036, 460.124 485.276, 459.215 486.185 M 192 536.937 C 192 563.904, 192.192 567.404, 193.983 573.145 C 197.479 584.344, 206.442 593.777, 217.532 597.926 L 223.128 600.020 368.314 599.760 L 513.500 599.500 519.175 596.840 C 525.903 593.686, 532.966 587.444, 536.347 581.664 C 541.522 572.814, 542 569.016, 542 536.697 L 542 506.756 539.750 508.411 C 535.993 511.175, 525.853 515.819, 519.500 517.686 C 513.920 519.326, 503.777 519.471, 374.500 519.767 C 286.233 519.969, 231.850 519.719, 225.500 519.080 C 214.099 517.935, 206.029 515.442, 197.750 510.511 L 192 507.085 192 536.937" stroke="none" fill="#343434" fill-rule="evenodd"/><path d="M 0 348.001 L 0 696.003 380.750 695.751 L 761.500 695.500 761.751 347.750 L 762.003 0 381.001 0 L 0 0 0 348.001 M 0.494 348.500 C 0.494 539.900, 0.609 618.051, 0.750 522.169 C 0.891 426.287, 0.891 269.687, 0.750 174.169 C 0.609 78.651, 0.494 157.100, 0.494 348.500 M 345.293 97.428 C 306.388 104.807, 273.916 129.576, 257.378 164.489 C 247.486 185.371, 245.646 201.538, 246.166 263 L 246.500 302.500 233.500 303.045 C 222.100 303.523, 219.818 303.920, 214.963 306.267 C 204.206 311.467, 196.771 320.046, 193.588 330.932 C 192.284 335.391, 192 342.059, 192 368.182 C 192 385.682, 192.170 400, 192.379 400 C 192.587 400, 195.271 398.487, 198.342 396.637 C 201.414 394.788, 207.206 392.200, 211.213 390.887 L 218.500 388.500 367 388.500 L 515.500 388.500 522.500 390.708 C 526.350 391.923, 532.142 394.510, 535.371 396.458 C 538.600 398.406, 541.413 400, 541.621 400 C 541.830 400, 542 385.682, 542 368.182 C 542 333.154, 541.567 329.821, 535.841 320.803 C 531.869 314.546, 526.610 309.936, 519.421 306.411 C 514.061 303.782, 512.267 303.459, 500.500 303.004 L 487.500 302.500 487.829 263.500 C 488.216 217.534, 487.165 197.599, 483.626 183.794 C 473.077 142.648, 439.101 109.892, 395.500 98.833 C 385.053 96.183, 356.124 95.373, 345.293 97.428 M 355.763 148.965 C 330.645 153.556, 310.505 170.401, 302.252 193.722 L 299.500 201.500 299.500 252 L 299.500 302.500 367 302.500 L 434.500 302.500 434.500 252 L 434.500 201.500 431.687 193.500 C 424.505 173.076, 407.377 157.033, 386.183 150.880 C 378.578 148.672, 362.799 147.678, 355.763 148.965 M 216 392.547 C 212.425 393.311, 205.687 395.857, 201.027 398.207 C 176.018 410.814, 162.564 439.398, 168.485 467.343 C 172.207 484.914, 185.768 502.079, 202 509.769 C 217.160 516.950, 206.125 516.500, 367 516.500 C 527.875 516.500, 516.840 516.950, 532 509.769 C 543.286 504.422, 554.750 493.148, 560.234 482 C 570.984 460.150, 568.425 434.251, 553.597 414.831 C 545.759 404.565, 530.805 395.336, 517.412 392.499 C 507.376 390.373, 225.971 390.418, 216 392.547 M 218 400.086 C 215.525 400.564, 209.826 402.767, 205.336 404.983 C 182.663 416.172, 170.368 442.437, 176.522 466.540 C 181.332 485.381, 193.997 499.129, 212.609 505.710 L 220.500 508.500 362 508.801 C 459.451 509.008, 505.857 508.765, 511.070 508.022 C 524.477 506.111, 533.829 501.436, 543.118 492.003 C 564.395 470.395, 564.239 436.399, 542.765 414.925 C 536.045 408.205, 523.809 401.598, 515.114 399.994 C 508.374 398.750, 224.473 398.839, 218 400.086 M 229.577 414.757 C 229.260 415.074, 229 419.634, 229 424.890 L 229 434.446 222.004 427.504 L 215.007 420.561 209.499 426.001 L 203.991 431.441 210.495 437.995 C 214.073 441.601, 217 444.876, 217 445.275 C 217 445.674, 212.725 446, 207.500 446 L 198 446 198 454 L 198 462 207.723 462 L 217.446 462 210.492 469.008 L 203.538 476.016 209.261 481.739 L 214.984 487.462 221.992 480.508 L 229 473.554 229 483.277 L 229 493 237 493 L 245 493 245 482.775 L 245 472.550 252.279 479.780 L 259.558 487.011 264.998 481.502 L 270.439 475.993 263.720 469.221 C 260.024 465.497, 256.999 462.236, 256.998 461.975 C 256.997 461.714, 261.272 461.643, 266.498 461.819 L 276 462.137 276 454.069 L 276 446 266.277 446 L 256.554 446 263.437 439.064 L 270.319 432.128 266.973 428.314 C 265.133 426.216, 262.548 423.650, 261.229 422.611 L 258.831 420.722 251.915 427.584 L 245 434.446 245 424.449 L 245 414.451 237.577 414.315 C 233.494 414.241, 229.894 414.439, 229.577 414.757 M 316.541 414.792 C 316.244 415.090, 316 419.634, 316 424.890 L 316 434.446 309.004 427.504 L 302.007 420.561 296.498 426.002 L 290.989 431.442 298.220 438.721 L 305.450 446 295.225 446 L 285 446 285 453.964 L 285 461.928 294.693 462.214 L 304.386 462.500 297.587 469.162 L 290.788 475.824 296.406 481.624 L 302.023 487.423 309.012 480.488 C 312.914 476.616, 316.030 474.204, 316.068 475.027 C 316.106 475.837, 316.078 480.212, 316.006 484.750 L 315.876 493 323.938 493 L 332 493 332 482.775 L 332 472.550 339.279 479.780 L 346.558 487.011 351.998 481.502 L 357.439 475.993 350.534 469.035 L 343.630 462.077 353.526 461.788 L 363.421 461.500 363.461 453.752 L 363.500 446.003 353.527 446.002 L 343.554 446 350.444 439.057 L 357.334 432.113 353.599 427.556 C 347.286 419.852, 346.817 419.848, 339.161 427.436 L 332.500 434.038 332 424.263 L 331.500 414.488 324.291 414.369 C 320.327 414.304, 316.839 414.494, 316.541 414.792 M 403 424.218 C 403 429.598, 402.615 434, 402.145 434 C 401.675 434, 400.200 432.762, 398.868 431.250 C 397.536 429.738, 394.543 426.718, 392.216 424.541 L 387.987 420.581 382.488 426.012 L 376.989 431.442 384.220 438.721 L 391.450 446 381.183 446 L 370.916 446 371.208 453.750 L 371.500 461.500 381.435 461.788 L 391.370 462.077 384.466 469.035 L 377.561 475.993 383.002 481.502 L 388.442 487.011 395.721 479.780 L 403 472.550 403 482.775 L 403 493 410.500 493 L 418 493 418.111 485.750 C 418.172 481.762, 418.139 477.488, 418.039 476.250 C 417.939 475.012, 418.240 474, 418.707 474 C 419.175 474, 422.457 476.925, 426 480.500 L 432.442 487 438.101 481.400 L 443.759 475.801 436.849 469.150 L 429.938 462.500 439.719 462 L 449.500 461.500 449.792 453.750 L 450.084 446 439.817 446 L 429.550 446 436.780 438.721 L 444.011 431.442 438.502 426.002 L 432.993 420.561 426.221 427.280 C 422.497 430.976, 419.124 434, 418.725 434 C 418.326 434, 418 429.543, 418 424.095 L 418 414.190 410.500 414.313 L 403 414.436 403 424.218 M 459.215 486.185 C 457.600 487.800, 457.674 490.485, 459.372 491.894 C 460.343 492.699, 468.889 492.954, 488.622 492.766 L 516.500 492.500 516.500 489 L 516.500 485.500 488.465 485.235 C 467.498 485.036, 460.124 485.276, 459.215 486.185 M 192 536.937 C 192 563.904, 192.192 567.404, 193.983 573.145 C 197.479 584.344, 206.442 593.777, 217.532 597.926 L 223.128 600.020 368.314 599.760 L 513.500 599.500 519.175 596.840 C 525.903 593.686, 532.966 587.444, 536.347 581.664 C 541.522 572.814, 542 569.016, 542 536.697 L 542 506.756 539.750 508.411 C 535.993 511.175, 525.853 515.819, 519.500 517.686 C 513.920 519.326, 503.777 519.471, 374.500 519.767 C 286.233 519.969, 231.850 519.719, 225.500 519.080 C 214.099 517.935, 206.029 515.442, 197.750 510.511 L 192 507.085 192 536.937" stroke="none" fill="#fbfbfb" fill-rule="evenodd"/></svg>